<?xml version="1.0" encoding="utf-8"?>
<!-- Generator: Adobe Illustrator 16.0.0, SVG Export Plug-In . SVG Version: 6.00 Build 0)  -->
<!DOCTYPE svg PUBLIC "-//W3C//DTD SVG 1.1//EN" "http://www.w3.org/Graphics/SVG/1.1/DTD/svg11.dtd">
<svg version="1.1" id="Layer_1" xmlns="http://www.w3.org/2000/svg" xmlns:xlink="http://www.w3.org/1999/xlink" x="0px" y="0px"
	 width="464.717px" height="52.757px" viewBox="0 0 464.717 52.757" enable-background="new 0 0 464.717 52.757"
	 xml:space="preserve">
<g id="naslov">
	<g>
		<path fill="#1C90CE" stroke="#1C90CE" stroke-width="1.3033" stroke-miterlimit="10" d="M0.651,14.197
			c0-1.067,1.128-1.553,2.254-1.553c1.119,0,2.243,0.486,2.243,1.553v17.721L19.5,13.292c0.319-0.436,0.854-0.647,1.336-0.647
			c1.128,0,2.571,1.179,2.571,2.299c0,0.275-0.108,0.648-0.377,0.972L12.11,29.563l12.745,19.276
			c0.158,0.265,0.267,0.535,0.267,0.798c0,1.182-1.337,2.247-2.628,2.247c-0.64,0-1.231-0.262-1.658-0.899L9.111,33.365
			l-3.963,4.977v11.832c0,1.07-1.124,1.607-2.243,1.607c-1.126,0-2.254-0.537-2.254-1.607V14.197z"/>
		<path fill="#1C90CE" stroke="#1C90CE" stroke-width="1.3033" stroke-miterlimit="10" d="M47.711,14.197
			c0-1.067,1.067-1.553,2.25-1.553c1.07,0,2.242,0.486,2.242,1.553v26.238c0,8.514-5.139,11.668-11.717,11.668
			c-6.588,0-11.669-3.154-11.669-11.668V14.197c0-1.067,1.116-1.553,2.244-1.553c1.123,0,2.249,0.486,2.249,1.553v26.238
			c0,5.188,2.677,7.602,7.176,7.602c4.492,0,7.225-2.414,7.225-7.602V14.197z"/>
		<path fill="#1C90CE" stroke="#1C90CE" stroke-width="1.3033" stroke-miterlimit="10" d="M70.893,16.718
			c-4.605,0-7.122,2.403-7.122,7.598v16.118c0,5.188,2.517,7.604,7.281,7.604c5.941,0,6.478-3.86,6.805-6.379
			c0.099-1.063,0.904-1.549,2.244-1.549c1.501,0,2.245,0.484,2.245,2.518c0,5.297-4.443,9.478-11.616,9.478
			c-6.259,0-11.456-3.153-11.456-11.672V24.316c0-8.514,5.245-11.669,11.51-11.669c7.172,0,11.563,4.072,11.563,9.317
			c0,2.032-0.744,2.461-2.245,2.461c-1.443,0-2.198-0.589-2.244-1.548C77.744,20.731,76.889,16.718,70.893,16.718 M69.016,6.862
			c-0.211,0.112-0.37,0.219-0.584,0.219c-0.909,0-1.606-0.965-1.606-1.821c0-0.481,0.211-0.908,0.697-1.183l6.26-3.313
			c0.159-0.06,0.374-0.112,0.538-0.112c0.91,0,1.494,0.969,1.494,1.821c0,0.485-0.211,1.017-0.745,1.287L69.016,6.862z"/>
		<path fill="#1C90CE" stroke="#1C90CE" stroke-width="1.3033" stroke-miterlimit="10" d="M143.648,51.781
			c-1.022,0-2.037-0.539-2.037-1.605V14.196c0-1.067,1.128-1.55,2.251-1.55c1.126,0,2.25,0.483,2.25,1.55v33.519h14.61
			c0.968,0,1.448,1.015,1.448,2.035c0,1.015-0.48,2.031-1.448,2.031H143.648z"/>
		<path fill="#1C90CE" stroke="#1C90CE" stroke-width="1.3033" stroke-miterlimit="10" d="M171.168,30.315h8.346
			c0.963,0,1.561,0.909,1.561,1.927c0,0.862-0.49,1.817-1.561,1.817h-8.346v13.655h16.592c0.965,0,1.556,0.964,1.556,2.089
			c0,0.963-0.482,1.979-1.556,1.979h-19.059c-1.017,0-2.031-0.539-2.031-1.605v-35.92c0-1.071,1.015-1.609,2.031-1.609h19.059
			c1.073,0,1.556,1.015,1.556,1.986c0,1.12-0.591,2.085-1.556,2.085h-16.592V30.315z"/>
		<path fill="#1C90CE" stroke="#1C90CE" stroke-width="1.3033" stroke-miterlimit="10" d="M194.185,14.197
			c0-0.802,0.696-1.552,1.821-1.552h10.115c6.316,0,11.351,3.108,11.351,11.565v0.482c0,8.409-5.088,11.613-11.559,11.613h-7.232
			v13.866c0,1.066-1.123,1.607-2.25,1.607c-1.118,0-2.246-0.541-2.246-1.607V14.197z M198.681,16.719v15.844h7.232
			c4.38,0,7.061-2.465,7.061-7.601v-0.646c0-5.193-2.681-7.597-7.061-7.597H198.681z"/>
		<path fill="#1C90CE" stroke="#1C90CE" stroke-width="1.3033" stroke-miterlimit="10" d="M222.831,14.197
			c0-1.067,1.115-1.553,2.245-1.553c1.122,0,2.246,0.486,2.246,1.553v35.977c0,1.07-1.124,1.607-2.246,1.607
			c-1.13,0-2.245-0.537-2.245-1.607V14.197z"/>
		<path fill="#1C90CE" stroke="#1C90CE" stroke-width="1.3033" stroke-miterlimit="10" d="M253.931,33.365h-14.509v16.811
			c0,1.068-1.129,1.605-2.248,1.605c-1.125,0-2.25-0.537-2.25-1.605V14.197c0-1.067,1.125-1.553,2.25-1.553
			c1.119,0,2.248,0.486,2.248,1.553v15.424h14.509V14.197c0-1.067,1.119-1.553,2.25-1.553c1.122,0,2.25,0.486,2.25,1.553v35.979
			c0,1.068-1.127,1.605-2.25,1.605c-1.131,0-2.25-0.537-2.25-1.605V33.365z"/>
		<path fill="#1C90CE" stroke="#1C90CE" stroke-width="1.3033" stroke-miterlimit="10" d="M112.627,51.378L112.627,51.378
			c-2.727-0.006-5.184-2.385-6.412-6.209c-0.327-1.028-0.517-1.889-0.664-2.598c-0.061-0.289-0.137-0.623-0.203-0.852
			c-0.113,0.029-0.426,0.004-0.958,0l-0.527,0.008c-1.11,0.033-2.258,0.061-2.554,0.17h0.004c0.119,0-0.126,0.633-0.338,1.201
			c-0.22,0.559-0.471,1.238-0.812,2.043c-1.622,3.836-4.114,6.125-6.683,6.125c-2.23,0-4.835-1.84-4.835-7.021
			c0-6.063-0.239-10.873-0.441-14.738c-0.402-7.806-0.6-11.721,1.876-14.333c2.381-2.495,6.211-2.657,12.854-2.51l0.694,0.015
			c7.323,0.16,10.998,0.242,13.277,2.722c2.333,2.532,2.085,6.512,1.604,14.435c-0.234,3.772-0.521,8.529-0.644,14.558
			C117.769,49.212,115.169,51.378,112.627,51.378 M104.39,37.091c4.372,0,5.137,1.959,5.687,4.511
			c0.122,0.588,0.272,1.301,0.55,2.155c0.684,2.138,1.643,2.908,1.972,2.984c0.155-0.143,0.607-0.824,0.643-2.443
			c0.118-6.1,0.414-10.926,0.646-14.743c0.371-5.984,0.607-9.934-0.391-11.019c-0.941-1.029-4.727-1.112-9.972-1.228l-0.697-0.015
			c-0.943-0.024-1.824-0.031-2.641-0.031c-2.812,0-5.821,0.125-6.752,1.101c-1.11,1.168-0.906,5.045-0.61,10.907
			c0.207,3.923,0.451,8.789,0.451,14.976c0,1.648,0.367,2.369,0.498,2.492c-0.098-0.141,1.056-0.859,2.122-3.389
			c0.316-0.746,0.557-1.379,0.757-1.898c1.47-3.865,2.496-4.229,7.084-4.352L104.39,37.091z"/>
		<g>
			<path fill="#1C90CE" d="M280.896,39.957V24.028c0-4.196,1.058-7.28,3.176-9.251c2.119-1.97,4.949-2.956,8.492-2.956
				c3.541,0,6.38,0.986,8.516,2.956c2.136,1.971,3.204,5.055,3.204,9.251v15.929c0,4.197-1.068,7.279-3.204,9.25
				c-2.136,1.972-4.975,2.957-8.516,2.957c-3.543,0-6.373-0.985-8.492-2.957C281.952,47.236,280.896,44.154,280.896,39.957z
				 M286.416,39.957c0,4.707,2.048,7.062,6.146,7.062c1.979,0,3.506-0.582,4.584-1.752c1.074-1.166,1.614-2.938,1.614-5.31V24.028
				c0-2.372-0.54-4.142-1.614-5.31c-1.078-1.167-2.604-1.751-4.584-1.751c-4.099,0-6.146,2.354-6.146,7.062V39.957z"/>
			<path fill="#1C90CE" d="M310.376,45.814c0-0.693,0.241-1.387,0.729-2.08c0.484-0.693,1.041-1.041,1.666-1.041
				c0.382,0,0.842,0.234,1.381,0.701c0.538,0.469,1.066,0.973,1.588,1.516c0.521,0.543,1.312,1.049,2.37,1.519
				c1.059,0.467,2.248,0.698,3.566,0.698c1.98,0,3.569-0.494,4.768-1.483c1.197-0.99,1.797-2.44,1.797-4.351
				c0-1.76-0.581-3.229-1.744-4.4c-1.164-1.174-2.57-2.109-4.22-2.809c-1.649-0.697-3.309-1.449-4.975-2.254
				c-1.668-0.81-3.083-2.02-4.246-3.634c-1.163-1.614-1.744-3.632-1.744-6.054c0-1.93,0.355-3.604,1.066-5.024
				c0.712-1.419,1.676-2.512,2.894-3.276c1.214-0.765,2.489-1.32,3.827-1.666c1.336-0.346,2.752-0.52,4.245-0.52
				c0.938,0,1.918,0.064,2.942,0.19c1.023,0.126,2.04,0.333,3.047,0.623c1.007,0.289,1.841,0.704,2.501,1.245
				c0.659,0.542,0.989,1.154,0.989,1.84s-0.208,1.377-0.625,2.074c-0.416,0.697-0.974,1.045-1.666,1.045
				c-0.349,0-0.817-0.174-1.406-0.522c-0.592-0.349-1.382-0.697-2.37-1.046c-0.99-0.348-2.128-0.522-3.412-0.522
				c-1.979,0-3.561,0.413-4.739,1.238c-1.182,0.826-1.771,2.082-1.771,3.77c0,1.101,0.313,2.046,0.938,2.834
				c0.625,0.788,1.434,1.44,2.423,1.954c0.989,0.514,2.091,1.019,3.308,1.514c1.216,0.496,2.422,1.071,3.62,1.733
				c1.197,0.658,2.292,1.422,3.28,2.285c0.989,0.861,1.798,2.045,2.423,3.549s0.938,3.246,0.938,5.229
				c0,3.771-1.086,6.646-3.256,8.619c-2.17,1.978-5.044,2.965-8.62,2.965c-3.193,0-5.912-0.7-8.151-2.106
				C311.496,48.762,310.376,47.311,310.376,45.814z"/>
			<path fill="#1C90CE" d="M340.534,49.919V14.722c0-0.985,0.261-1.715,0.781-2.189c0.52-0.474,1.18-0.712,1.979-0.712
				c1.007,0,1.831,0.229,2.474,0.685s1.277,1.323,1.902,2.6l7.291,14.506l7.396-14.506c0.626-1.277,1.251-2.144,1.876-2.6
				c0.625-0.457,1.439-0.685,2.446-0.685c0.798,0,1.459,0.238,1.979,0.712c0.521,0.474,0.781,1.204,0.781,2.189v35.197
				c0,0.582-0.27,1.049-0.808,1.396c-0.539,0.351-1.189,0.521-1.954,0.521c-0.729,0-1.372-0.172-1.927-0.521
				c-0.557-0.347-0.834-0.813-0.834-1.396V23.645l-6.979,13.576c-0.521,0.875-1.198,1.313-2.031,1.313
				c-0.834,0-1.459-0.438-1.875-1.313l-6.979-13.904v26.603c0,0.582-0.271,1.049-0.808,1.396c-0.539,0.351-1.189,0.521-1.953,0.521
				c-0.729,0-1.372-0.172-1.927-0.521C340.813,50.968,340.534,50.501,340.534,49.919z"/>
			<path fill="#1C90CE" d="M377.88,49.919V13.737c0-0.583,0.243-1.049,0.729-1.396c0.485-0.346,1.06-0.52,1.719-0.52h18.544
				c0.59,0,1.041,0.256,1.354,0.767c0.313,0.511,0.47,1.095,0.47,1.751c0,0.73-0.166,1.35-0.495,1.861
				c-0.33,0.511-0.772,0.766-1.328,0.766h-15.47v12.536h8.021c0.558,0,0.998,0.229,1.329,0.686c0.329,0.456,0.495,1.012,0.495,1.668
				c0,0.584-0.157,1.104-0.47,1.561c-0.313,0.457-0.765,0.685-1.354,0.685h-8.021v12.59h15.47c0.556,0,0.998,0.256,1.328,0.767
				c0.329,0.512,0.495,1.133,0.495,1.86c0,0.656-0.157,1.242-0.47,1.752c-0.313,0.513-0.765,0.769-1.354,0.769h-18.544
				c-0.659,0-1.232-0.172-1.719-0.521C378.123,50.968,377.88,50.501,377.88,49.919z"/>
			<path fill="#1C90CE" d="M406.685,49.919V13.682c0-0.621,0.27-1.086,0.809-1.396c0.538-0.309,1.188-0.465,1.953-0.465
				c0.764,0,1.414,0.156,1.954,0.465c0.537,0.311,0.807,0.776,0.807,1.396v15.106h12.97V13.682c0-0.621,0.27-1.086,0.809-1.396
				c0.537-0.309,1.188-0.465,1.953-0.465c0.764,0,1.415,0.156,1.952,0.465c0.539,0.311,0.809,0.776,0.809,1.396v36.237
				c0,0.582-0.27,1.049-0.809,1.396c-0.537,0.351-1.188,0.521-1.952,0.521c-0.729,0-1.372-0.172-1.928-0.521
				c-0.557-0.347-0.834-0.813-0.834-1.396v-16.53h-12.97v16.53c0,0.582-0.27,1.049-0.807,1.396c-0.54,0.351-1.19,0.521-1.954,0.521
				c-0.729,0-1.372-0.172-1.928-0.521C406.962,50.968,406.685,50.501,406.685,49.919z"/>
			<path fill="#1C90CE" d="M436.442,49.432c0-0.22,0.017-0.384,0.052-0.492l10.343-35.479c0.443-1.312,1.678-1.969,3.704-1.969
				c2.063,0,3.315,0.611,3.758,1.834l10.313,35.47c0.067,0.229,0.104,0.402,0.104,0.518c0,0.688-0.406,1.279-1.214,1.775
				c-0.812,0.498-1.669,0.746-2.575,0.746c-1.096,0-1.775-0.398-2.042-1.191l-2.154-7.842h-12.806l-2.13,7.82
				c-0.243,0.809-0.884,1.213-1.924,1.213c-0.832,0-1.611-0.236-2.339-0.711C436.807,50.652,436.442,50.087,436.442,49.432z
				 M445.18,38.205h10.339l-5.221-18.787L445.18,38.205z"/>
		</g>
	</g>
</g>
</svg>
