<?xml version="1.0" encoding="utf-8"?>
<!-- Generator: Adobe Illustrator 16.0.0, SVG Export Plug-In . SVG Version: 6.00 Build 0)  -->
<!DOCTYPE svg PUBLIC "-//W3C//DTD SVG 1.1//EN" "http://www.w3.org/Graphics/SVG/1.1/DTD/svg11.dtd">
<svg version="1.1" id="Layer_1" xmlns="http://www.w3.org/2000/svg" xmlns:xlink="http://www.w3.org/1999/xlink" x="0px" y="0px"
	 width="283.464px" height="283.464px" viewBox="0 0 283.464 283.464" enable-background="new 0 0 283.464 283.464"
	 xml:space="preserve">
<g id="Layer_1_1_">
	<g>
		<g>
			<defs>
				<path id="SVGID_1_" d="M241.087,11.77L21.32,30.999c-5.751,0.502-10.05,5.627-9.547,11.378l19.224,219.771
					c0.505,5.752,5.625,10.047,11.381,9.547l219.768-19.229c5.753-0.504,10.05-5.625,9.55-11.379l-19.228-219.77
					c-0.475-5.445-5.092-9.587-10.467-9.587C241.699,11.73,241.394,11.743,241.087,11.77"/>
			</defs>
			<clipPath id="SVGID_2_">
				<use xlink:href="#SVGID_1_"  overflow="visible"/>
			</clipPath>
			
				<linearGradient id="SVGID_3_" gradientUnits="userSpaceOnUse" x1="68.2036" y1="-65.5269" x2="69.6149" y2="-65.5269" gradientTransform="matrix(201.4389 116.3008 -116.3008 201.4389 -21360.1484 5327.3921)">
				<stop  offset="0" style="stop-color:#0BBBEF"/>
				<stop  offset="1" style="stop-color:#2FAC66"/>
			</linearGradient>
			<polygon clip-path="url(#SVGID_2_)" fill="url(#SVGID_3_)" points="76.501,-101.254 384.98,76.846 206.964,385.179 
				-101.515,207.08 			"/>
		</g>
	</g>
	<g>
		<g>
			<defs>
				<rect id="SVGID_4_" x="-58.268" y="-58.268" width="400" height="400"/>
			</defs>
			<clipPath id="SVGID_5_">
				<use xlink:href="#SVGID_4_"  overflow="visible"/>
			</clipPath>
			<path clip-path="url(#SVGID_5_)" fill="none" stroke="#FFFFFF" stroke-width="3.5278" stroke-miterlimit="10" d="
				M271.694,241.087c0.5,5.752-3.795,10.875-9.551,11.377L42.376,271.693c-5.755,0.503-10.875-3.796-11.379-9.546L11.773,42.377
				C11.271,36.624,15.568,31.501,21.319,31l219.769-19.23c5.756-0.501,10.879,3.796,11.381,9.547L271.694,241.087z"/>
		</g>
		<g>
			<defs>
				<rect id="SVGID_6_" x="-58.268" y="-58.268" width="400" height="400"/>
			</defs>
			<clipPath id="SVGID_7_">
				<use xlink:href="#SVGID_6_"  overflow="visible"/>
			</clipPath>
			<path clip-path="url(#SVGID_7_)" fill="#FFFFFF" d="M42.848,93.044c0-0.819,0.865-1.191,1.729-1.191
				c0.859,0,1.721,0.373,1.721,1.191v13.596l11.011-14.29c0.245-0.334,0.656-0.497,1.026-0.497c0.865,0,1.973,0.905,1.973,1.764
				c0,0.211-0.083,0.497-0.29,0.746l-8.379,10.472l9.779,14.79c0.121,0.203,0.205,0.411,0.205,0.612
				c0,0.906-1.026,1.725-2.016,1.725c-0.491,0-0.945-0.2-1.272-0.691l-8.996-13.519l-3.041,3.82v9.078
				c0,0.82-0.862,1.233-1.721,1.233c-0.864,0-1.729-0.413-1.729-1.233V93.044L42.848,93.044z"/>
		</g>
		<g>
			<defs>
				<rect id="SVGID_8_" x="-58.268" y="-58.268" width="400" height="400"/>
			</defs>
			<clipPath id="SVGID_9_">
				<use xlink:href="#SVGID_8_"  overflow="visible"/>
			</clipPath>
			<path clip-path="url(#SVGID_9_)" fill="#FFFFFF" d="M78.955,93.044c0-0.819,0.819-1.191,1.726-1.191
				c0.821,0,1.721,0.373,1.721,1.191v20.131c0,6.534-3.944,8.953-8.99,8.953c-5.055,0-8.953-2.419-8.953-8.953V93.044
				c0-0.819,0.856-1.191,1.721-1.191c0.861,0,1.726,0.373,1.726,1.191v20.131c0,3.982,2.053,5.833,5.506,5.833
				c3.446,0,5.543-1.852,5.543-5.833V93.044L78.955,93.044z"/>
		</g>
		<g>
			<defs>
				<rect id="SVGID_10_" x="-58.268" y="-58.268" width="400" height="400"/>
			</defs>
			<clipPath id="SVGID_11_">
				<use xlink:href="#SVGID_10_"  overflow="visible"/>
			</clipPath>
			<path clip-path="url(#SVGID_11_)" fill="#FFFFFF" d="M96.742,94.979c-3.535,0-5.465,1.844-5.465,5.83v12.367
				c0,3.982,1.931,5.835,5.587,5.835c4.559,0,4.97-2.964,5.221-4.896c0.076-0.815,0.694-1.188,1.721-1.188
				c1.153,0,1.723,0.373,1.723,1.932c0,4.065-3.409,7.271-8.913,7.271c-4.802,0-8.79-2.42-8.79-8.955v-12.367
				c0-6.533,4.024-8.954,8.831-8.954c5.503,0,8.872,3.124,8.872,7.148c0,1.56-0.57,1.888-1.723,1.888
				c-1.107,0-1.686-0.452-1.721-1.188C101.999,98.058,101.342,94.979,96.742,94.979 M95.302,87.417
				c-0.163,0.086-0.284,0.168-0.449,0.168c-0.697,0-1.232-0.741-1.232-1.397c0-0.369,0.162-0.696,0.535-0.907l4.803-2.542
				c0.122-0.045,0.287-0.086,0.413-0.086c0.698,0,1.146,0.743,1.146,1.397c0,0.372-0.162,0.78-0.572,0.987L95.302,87.417z"/>
		</g>
		<g>
			<defs>
				<rect id="SVGID_12_" x="-58.268" y="-58.268" width="400" height="400"/>
			</defs>
			<clipPath id="SVGID_13_">
				<use xlink:href="#SVGID_12_"  overflow="visible"/>
			</clipPath>
			<path clip-path="url(#SVGID_13_)" fill="#FFFFFF" d="M152.565,121.881c-0.784,0-1.563-0.414-1.563-1.232V93.043
				c0-0.818,0.865-1.189,1.728-1.189c0.864,0,1.728,0.371,1.728,1.189v25.718h11.209c0.744,0,1.111,0.777,1.111,1.561
				c0,0.779-0.367,1.56-1.111,1.56L152.565,121.881L152.565,121.881z"/>
		</g>
		<g>
			<defs>
				<rect id="SVGID_14_" x="-58.268" y="-58.268" width="400" height="400"/>
			</defs>
			<clipPath id="SVGID_15_">
				<use xlink:href="#SVGID_14_"  overflow="visible"/>
			</clipPath>
			<path clip-path="url(#SVGID_15_)" fill="#FFFFFF" d="M173.681,105.411h6.402c0.74,0,1.197,0.697,1.197,1.477
				c0,0.662-0.376,1.395-1.197,1.395h-6.402v10.479h12.73c0.739,0,1.192,0.738,1.192,1.602c0,0.738-0.37,1.518-1.192,1.518h-14.623
				c-0.781,0-1.56-0.414-1.56-1.232V93.09c0-0.822,0.778-1.235,1.56-1.235h14.623c0.822,0,1.192,0.778,1.192,1.524
				c0,0.859-0.453,1.6-1.192,1.6h-12.73V105.411z"/>
		</g>
		<g>
			<defs>
				<rect id="SVGID_16_" x="-58.268" y="-58.268" width="400" height="400"/>
			</defs>
			<clipPath id="SVGID_17_">
				<use xlink:href="#SVGID_16_"  overflow="visible"/>
			</clipPath>
			<path clip-path="url(#SVGID_17_)" fill="#FFFFFF" d="M191.341,93.044c0-0.615,0.533-1.191,1.396-1.191h7.762
				c4.847,0,8.709,2.385,8.709,8.874v0.37c0,6.452-3.903,8.91-8.869,8.91h-5.549v10.641c0,0.819-0.861,1.232-1.727,1.232
				c-0.857,0-1.725-0.413-1.725-1.232V93.044H191.341z M194.791,94.979v12.157h5.549c3.361,0,5.418-1.891,5.418-5.832v-0.496
				c0-3.984-2.057-5.829-5.418-5.829H194.791z"/>
		</g>
		<g>
			<defs>
				<rect id="SVGID_18_" x="-58.268" y="-58.268" width="400" height="400"/>
			</defs>
			<clipPath id="SVGID_19_">
				<use xlink:href="#SVGID_18_"  overflow="visible"/>
			</clipPath>
			<path clip-path="url(#SVGID_19_)" fill="#FFFFFF" d="M213.32,93.044c0-0.819,0.855-1.191,1.723-1.191
				c0.861,0,1.725,0.373,1.725,1.191v27.604c0,0.82-0.862,1.233-1.725,1.233c-0.867,0-1.723-0.413-1.723-1.233V93.044z"/>
		</g>
		<g>
			<defs>
				<rect id="SVGID_20_" x="-58.268" y="-58.268" width="400" height="400"/>
			</defs>
			<clipPath id="SVGID_21_">
				<use xlink:href="#SVGID_20_"  overflow="visible"/>
			</clipPath>
			<path clip-path="url(#SVGID_21_)" fill="#FFFFFF" d="M237.182,107.751H226.05v12.899c0,0.819-0.866,1.232-1.725,1.232
				c-0.863,0-1.728-0.413-1.728-1.232V93.044c0-0.819,0.862-1.191,1.728-1.191c0.857,0,1.725,0.373,1.725,1.191v11.834h11.132
				V93.044c0-0.819,0.858-1.191,1.728-1.191c0.86,0,1.727,0.373,1.727,1.191v27.605c0,0.819-0.865,1.232-1.727,1.232
				c-0.867,0-1.728-0.413-1.728-1.232V107.751z"/>
		</g>
		<g>
			<defs>
				<rect id="SVGID_22_" x="-58.268" y="-58.268" width="400" height="400"/>
			</defs>
			<clipPath id="SVGID_23_">
				<use xlink:href="#SVGID_22_"  overflow="visible"/>
			</clipPath>
			<path clip-path="url(#SVGID_23_)" fill="#FFFFFF" d="M128.764,121.573L128.764,121.573c-2.092-0.005-3.978-1.83-4.92-4.765
				c-0.251-0.789-0.397-1.448-0.51-1.991c-0.046-0.223-0.104-0.479-0.155-0.655c-0.087,0.024-0.327,0.003-0.735,0l-0.405,0.007
				c-0.853,0.025-1.732,0.045-1.96,0.13h0.003c0.092,0-0.097,0.485-0.258,0.921c-0.169,0.428-0.361,0.949-0.624,1.567
				c-1.244,2.943-3.156,4.699-5.127,4.699c-1.712,0-3.71-1.411-3.71-5.388c0-4.652-0.183-8.343-0.338-11.309
				c-0.309-5.989-0.46-8.993,1.439-10.997c1.827-1.915,4.765-2.039,9.863-1.926l0.532,0.011c5.619,0.123,8.438,0.186,10.187,2.088
				c1.791,1.943,1.6,4.997,1.232,11.075c-0.18,2.895-0.399,6.544-0.494,11.17C132.709,119.911,130.714,121.573,128.764,121.573
				 M122.443,110.612c3.354,0,3.941,1.501,4.363,3.458c0.094,0.452,0.209,0.998,0.422,1.654c0.524,1.64,1.259,2.232,1.513,2.291
				c0.119-0.108,0.466-0.631,0.493-1.875c0.091-4.679,0.317-8.383,0.497-11.312c0.284-4.592,0.466-7.623-0.3-8.455
				c-0.723-0.79-3.627-0.854-7.651-0.942l-0.535-0.012c-0.724-0.018-1.399-0.023-2.025-0.023c-2.157,0-4.467,0.096-5.181,0.845
				c-0.853,0.896-0.695,3.871-0.469,8.368c0.16,3.01,0.347,6.744,0.347,11.491c0,1.265,0.281,1.819,0.381,1.912
				c-0.075-0.107,0.81-0.659,1.628-2.6c0.243-0.573,0.428-1.059,0.582-1.458c1.127-2.965,1.915-3.245,5.436-3.337L122.443,110.612z"
				/>
		</g>
		<g>
			<defs>
				<rect id="SVGID_24_" x="-58.268" y="-58.268" width="400" height="400"/>
			</defs>
			<clipPath id="SVGID_25_">
				<use xlink:href="#SVGID_24_"  overflow="visible"/>
			</clipPath>
			<path clip-path="url(#SVGID_25_)" fill="#FFFFFF" d="M67.948,167.66c1.472,0,2.207,0.736,2.207,2.211
				c0,1.588-0.218,3.289-0.645,5.094c-0.432,1.81-1.103,3.721-2.017,5.742c-1.777,3.983-4.171,5.975-7.167,5.975
				c-0.186,0-0.429-0.051-0.735-0.143c-0.309-0.088-0.89-0.289-1.749-0.596c-0.122,0.613-0.254,1.237-0.405,1.879
				c-0.155,0.646-0.323,1.333-0.508,2.067v0.185c-0.546,1.592-1.036,2.91-1.458,3.951c-0.431,1.043-0.827,1.868-1.188,2.479
				c-1.584,2.576-3.569,3.863-5.942,3.863c-2.927,0-5.091-1.472-6.49-4.412c-1.28-2.629-1.919-6.521-1.919-11.67
				c0-6.117,0.485-10.377,1.466-12.762v-0.557c-0.066-0.367-0.099-0.686-0.099-0.965v-0.773v-0.102
				c0.127-0.912,0.373-1.559,0.734-1.924c0.062-0.248,0.154-0.641,0.278-1.195c0.125-0.551,0.333-1.436,0.642-2.664
				c0.176-0.92,0.471-1.65,0.865-2.205c0.394-0.547,0.804-0.975,1.235-1.28c0.424-0.308,0.847-0.511,1.278-0.603
				c0.431-0.09,0.822-0.135,1.189-0.135c1.888,0,3.9,0.797,6.034,2.387c2.132,1.529,3.533,3.244,4.202,5.146
				c0.063,0.242,0.139,0.61,0.229,1.104c0.094,0.486,0.17,1.238,0.23,2.244c0.062,1.015,0.125,2.381,0.183,4.092
				c0.058,1.718,0.089,3.887,0.089,6.521c0.308,0.244,0.677,0.368,1.104,0.368c0.549,0,1.177-0.149,1.885-0.463
				c0.7-0.304,1.389-1.162,2.063-2.567c0.124-0.369,0.355-1.09,0.688-2.164c0.336-1.068,0.78-2.858,1.331-5.371
				C65.93,168.583,66.722,167.66,67.948,167.66 M50.59,191.544c0.917-2.021,1.513-3.596,1.789-4.73
				c0.275-1.131,0.415-1.941,0.415-2.432c0-0.858-0.06-1.871-0.181-3.036c-0.127-1.163-0.31-2.443-0.56-3.854
				c-0.365-1.957-0.595-3.306-0.683-4.037c-0.095-0.74-0.138-1.262-0.138-1.566v-1.01c0-0.366,0.058-0.799,0.179-1.289
				c0.063-0.483,0.096-0.896,0.096-1.237v-0.781c0-0.853-0.154-1.422-0.457-1.7c-0.309-0.273-0.706-0.41-1.195-0.41
				c-0.063,0.065-0.172,0.221-0.323,0.461c-0.156,0.242-0.335,0.658-0.552,1.24c-0.214,0.584-0.457,1.395-0.73,2.428
				c-0.277,1.048-0.572,2.393-0.878,4.045c-0.486,2.572-0.858,4.824-1.104,6.75c-0.241,1.93-0.368,3.598-0.368,5.009
				c0,0.858,0.035,1.808,0.099,2.849c0.058,1.041,0.199,2.038,0.414,2.981c0.214,0.954,0.502,1.749,0.871,2.392
				c0.367,0.643,0.858,0.997,1.472,1.059c0.119-0.125,0.317-0.383,0.596-0.787C49.625,193.49,50.038,192.705,50.59,191.544"/>
		</g>
		<g>
			<defs>
				<rect id="SVGID_26_" x="-58.268" y="-58.268" width="400" height="400"/>
			</defs>
			<clipPath id="SVGID_27_">
				<use xlink:href="#SVGID_26_"  overflow="visible"/>
			</clipPath>
			<path clip-path="url(#SVGID_27_)" fill="#FFFFFF" d="M72.36,167.391c0,1.22,0.196,2.752,0.593,4.589
				c0.394,1.841,0.998,4.039,1.793,6.609c0.858,2.699,1.472,4.981,1.833,6.852c0.369,1.861,0.557,3.381,0.557,4.542
				c0,3.188-0.679,5.757-2.023,7.718c-1.53,2.271-3.393,3.402-5.604,3.402c-2.331,0-4.41-1.014-6.247-3.033
				c-1.281-1.354-1.926-2.699-1.926-4.044c0-1.899,0.614-2.999,1.834-3.312c0.064,0,0.11-0.012,0.139-0.037
				c0.032-0.036,0.078-0.053,0.138-0.053c0.308,0,0.706,0.14,1.195,0.416c0.486,0.273,0.764,1.028,0.821,2.248
				c0.861,1.779,1.657,2.664,2.396,2.664c0.302,0,0.655-0.076,1.053-0.229c0.396-0.153,0.779-0.566,1.149-1.243
				c0.67-1.22,1.011-2.84,1.011-4.866c0-2.387-0.615-5.693-1.841-9.919v-0.095c-0.125-0.305-0.226-0.657-0.319-1.053
				c-0.091-0.396-0.199-0.784-0.323-1.151c-0.244,0.733-0.458,1.487-0.643,2.256c-0.182,0.761-0.396,1.513-0.645,2.244v0.092
				c-0.124,0.25-0.272,0.619-0.454,1.104c-0.186,0.49-0.428,0.963-0.74,1.426c-0.3,0.46-0.674,0.854-1.102,1.193
				c-0.425,0.336-0.945,0.502-1.56,0.502c-0.491,0-0.945-0.119-1.376-0.365c-0.677-0.305-0.89-0.793-0.647-1.469
				c0.431-1.715,0.862-3.43,1.287-5.146c0.43-1.712,0.855-3.399,1.287-5.051c0.491-1.651,0.827-3.415,1.009-5.289
				c0.185-1.862,0.277-3.838,0.277-5.92c0-1.22,0.338-2.187,1.01-2.894c0.673-0.701,1.624-1.054,2.85-1.054
				c0.917,0,1.664,0.121,2.248,0.364c0.583,0.248,1.015,0.538,1.288,0.876c0.272,0.333,0.46,0.674,0.551,1.007
				c0.091,0.342,0.138,0.631,0.138,0.872c0,0.129-0.034,0.339-0.094,0.647c-0.061,0.305-0.214,0.916-0.457,1.834
				C72.508,165.856,72.36,166.777,72.36,167.391"/>
		</g>
		<g>
			<defs>
				<rect id="SVGID_28_" x="-58.268" y="-58.268" width="400" height="400"/>
			</defs>
			<clipPath id="SVGID_29_">
				<use xlink:href="#SVGID_28_"  overflow="visible"/>
			</clipPath>
			<path clip-path="url(#SVGID_29_)" fill="#FFFFFF" d="M125.266,167.022c0.489,0,0.945,0.181,1.379,0.547
				c0.426,0.368,0.642,1.013,0.642,1.933c0,0.186-0.015,0.457-0.048,0.824c-0.032,0.369-0.107,0.893-0.226,1.562
				c-0.124,0.677-0.306,1.532-0.55,2.573c-0.251,1.041-0.587,2.328-1.012,3.857c-0.676,2.264-1.348,4.441-2.02,6.523
				c-0.674,2.08-1.38,4.07-2.114,5.969c-2.083,5.635-4.592,8.451-7.533,8.451c-3.43,0-5.514-3.182-6.245-9.555
				c-0.058,0-0.093-0.031-0.093-0.093v-2.202c-0.431,1.348-0.781,2.463-1.056,3.352c-0.278,0.887-0.503,1.547-0.686,1.975
				c-1.654,4.352-3.617,6.523-5.881,6.523c-0.555,0-1.101-0.094-1.657-0.277c-0.548-0.179-1.053-0.55-1.515-1.104
				c-0.456-0.547-0.841-1.297-1.147-2.246c-0.304-0.95-0.463-2.161-0.463-3.631c0-0.795,0.188-3.396,0.555-7.81
				c0.127-1.219,0.204-2.384,0.232-3.487c0.027-1.104,0.076-2.144,0.136-3.123c-0.186,0.549-0.368,1.347-0.55,2.385
				c-1.348,6.736-2.299,11.023-2.848,12.861c-1.654,5.209-3.765,7.813-6.339,7.813c-0.98,0-1.744-0.352-2.295-1.063
				c-0.552-0.699-0.98-1.59-1.287-2.664c-0.309-1.065-0.502-2.246-0.596-3.535c-0.09-1.284-0.138-2.541-0.138-3.766
				c0-0.677,0.017-1.545,0.048-2.615c0.029-1.07,0.073-2.373,0.133-3.904c0.058-1.284,0.095-2.375,0.095-3.262v-2.25l-0.736-2.023
				c-0.061-0.059-0.088-0.18-0.088-0.365c-0.243-3.613,0.182-6.029,1.281-7.257c0.614-0.61,1.348-0.915,2.204-0.915
				c0.37,0,0.783,0.059,1.24,0.182c0.459,0.123,0.874,0.365,1.244,0.733c0.364,0.366,0.687,0.886,0.962,1.563
				c0.278,0.672,0.419,1.557,0.419,2.666c0,2.567-0.249,4.987-0.743,7.252c-0.426,1.896-0.639,4.256-0.639,7.07v1.979
				c0,0.642,0.028,1.271,0.092,1.885c0.121-0.43,0.242-0.842,0.362-1.243c0.126-0.399,0.245-0.808,0.37-1.239
				c0.739-4.041,1.408-7.393,2.02-10.058c0.611-2.664,1.227-4.763,1.836-6.289c0.123-0.306,0.307-0.753,0.553-1.331
				c0.248-0.585,0.565-1.168,0.968-1.749c0.394-0.584,0.882-1.088,1.463-1.517c0.59-0.424,1.276-0.639,2.073-0.639
				c0.484,0,1.053,0.15,1.695,0.455c0.645,0.305,1.212,0.981,1.703,2.021c0.606,1.225,0.912,3.062,0.912,5.514v0.089
				c-0.306,2.817-0.544,5.342-0.726,7.582c-0.186,2.229-0.28,4.176-0.28,5.826c0,0.68,0.012,1.213,0.048,1.611
				c0.029,0.398,0.046,0.752,0.046,1.059c0.367-0.492,0.843-1.507,1.423-3.033c0.579-1.531,1.298-3.918,2.16-7.162
				c0.669-2.511,1.191-4.552,1.559-6.109c0.368-1.563,0.643-2.807,0.828-3.723s0.273-1.545,0.273-1.885v-0.686v-0.457
				c0.125-0.436,0.394-0.905,0.829-1.428c0.428-0.52,1.286-0.781,2.569-0.781c1.105,0,2.602,0.613,4.503,1.841
				c0.551,0.368,0.736,0.825,0.551,1.374c-1.596,7.654-2.391,13.961-2.391,18.926c0,1.405,0.051,2.523,0.139,3.354
				c0.094,0.824,0.199,1.449,0.323,1.881c0.185,0.488,0.368,0.822,0.55,1.011c0.064,0,0.196-0.063,0.414-0.188
				c0.216-0.117,0.52-0.443,0.921-0.965c0.393-0.521,0.87-1.346,1.42-2.48c0.549-1.129,1.165-2.706,1.833-4.723v-0.099
				c0.061-0.058,0.158-0.286,0.279-0.688c0.12-0.396,0.322-1.084,0.597-2.066c0.271-0.979,0.645-2.322,1.101-4.039
				c0.463-1.719,1.061-3.915,1.793-6.615c0.121-0.306,0.229-0.646,0.323-1.008c0.09-0.369,0.197-0.736,0.322-1.107l0.185-0.822
				v-0.094C123.397,167.569,124.164,167.022,125.266,167.022"/>
		</g>
		<g>
			<defs>
				<rect id="SVGID_30_" x="-58.268" y="-58.268" width="400" height="400"/>
			</defs>
			<clipPath id="SVGID_31_">
				<use xlink:href="#SVGID_30_"  overflow="visible"/>
			</clipPath>
			<path clip-path="url(#SVGID_31_)" fill="#FFFFFF" d="M195.544,167.389c0.789,0,1.156,0.229,1.098,0.687
				c-0.063,0.459-0.089,1.055-0.089,1.797c0,0.117-0.021,0.32-0.048,0.594c-0.034,0.271-0.108,0.654-0.233,1.146
				c-0.121,0.495-0.269,1.166-0.459,2.021c-0.185,0.859-0.455,1.926-0.827,3.216c-1.98,8.063-13.744,27.664-35.188,29.61
				c-18.563,1.683-39.125-3.449-39.125-20.334c0-3.185,0.229-6.396,0.688-9.644c0.46-3.241,1.053-6.157,1.794-8.726
				c0.242-0.922,0.535-1.867,0.867-2.854c0.34-0.976,0.754-1.877,1.237-2.707c0.494-0.824,1.045-1.505,1.657-2.023
				c0.615-0.519,1.348-0.778,2.206-0.778c1.716,0,3.309,0.646,4.772,1.933c0.676,0.674,1.229,1.498,1.656,2.479
				c0.428,0.982,0.645,1.839,0.645,2.57c0,1.229-0.124,2.576-0.367,4.045c-0.241,1.47-0.545,2.928-0.909,4.361
				c-0.364,1.442-0.774,2.758-1.227,3.946c-0.459,1.196-0.928,2.165-1.414,2.899c-0.306,0.553-0.728,1.1-1.271,1.652
				c-0.548,0.551-1.108,0.992-1.686,1.331c-0.573,0.335-1.119,0.519-1.643,0.548c-0.513,0.034-1.386-0.078-1.313-0.684
				c-1.278,10.587,8.55,19.443,34.193,17.734c16.626-1.107,28.144-15.99,31.854-28.211c0.187-0.674,0.357-1.332,0.506-1.976
				c0.154-0.642,0.324-1.301,0.513-1.972C193.733,168.276,194.441,167.389,195.544,167.389 M130.684,165.457
				c-0.483,1.352-0.912,2.558-1.298,3.631c-0.394,1.068-0.764,2.111-1.122,3.121c-0.362,1.015-0.659,2.039-0.902,3.08
				c-0.235,1.041-0.385,2.201-0.446,3.488c0.78-0.063,1.455-0.607,2.024-1.652c0.567-1.043,0.945-1.987,1.128-2.849
				c0.234-1.226,0.491-2.463,0.762-3.718c0.27-1.256,0.402-2.561,0.402-3.904c0-0.306-0.045-0.689-0.133-1.152
				C131.007,165.044,130.869,165.027,130.684,165.457"/>
		</g>
		<g>
			<defs>
				<rect id="SVGID_32_" x="-58.268" y="-58.268" width="400" height="400"/>
			</defs>
			<clipPath id="SVGID_33_">
				<use xlink:href="#SVGID_32_"  overflow="visible"/>
			</clipPath>
			<path clip-path="url(#SVGID_33_)" fill="#FFFFFF" d="M222.363,168.492c0.975,0,1.473,0.887,1.473,2.663
				c0,0.124-0.021,0.304-0.047,0.548c-0.037,0.248-0.158,0.83-0.371,1.752c-0.211,0.912-0.551,2.244-1.015,3.992
				c-0.458,1.743-1.116,4.146-1.967,7.209c-1.472,5.326-2.423,8.514-2.856,9.557c-1.342,3.361-3.181,5.05-5.504,5.05
				c-4.41,0-6.982-4.07-7.723-12.22v-0.094l-0.087-1.375v-6.521c-0.554,2.146-1.224,4.867-2.021,8.175
				c-0.802,3.308-1.777,7.5-2.943,12.581l-0.084,0.559l-0.463,0.274c-0.678,0.424-1.379,0.64-2.113,0.64
				c-1.775,0-3.092-1.386-3.953-4.176c-0.854-2.791-1.281-7.182-1.281-13.186c0-1.59,0.182-4.332,0.551-8.223
				c0.373-3.885,0.949-9.045,1.744-15.474c0.733-6.306,1.301-11.5,1.701-15.57c0.396-4.072,0.6-6.995,0.6-8.769v-3.035l0.088-0.276
				c0.244-0.488,0.668-0.978,1.287-1.469c0.613-0.488,1.531-0.737,2.754-0.737h0.277c2.145,0.124,3.217,1.136,3.217,3.033
				c0,1.163-0.221,2.417-0.641,3.765c-0.559,1.596-0.925,3.063-1.113,4.407c-1.527,9.494-2.67,17.763-3.44,24.802
				c-0.769,7.043-1.144,12.922-1.144,17.639c0.061,0.123,0.09,0.271,0.09,0.46c0,0.183,0.011,0.411,0.045,0.687
				c0.031,0.28,0.078,0.596,0.14,0.965v0.187c0.304-1.228,0.655-2.571,1.056-4.043c0.396-1.47,0.844-3.091,1.326-4.87
				c1.047-4.16,1.872-7.453,2.483-9.871c0.616-2.418,0.979-3.996,1.103-4.729c0.309-1.534,0.78-2.526,1.422-2.989
				c0.646-0.461,1.273-0.688,1.891-0.688c0.425,0,0.99,0.152,1.695,0.459c0.703,0.305,1.822,1.137,3.353,2.481l0.553,0.456
				l-0.093,0.734c-1.775,9.436-2.666,17.146-2.666,23.147c0,2.022,0.171,3.632,0.514,4.82c0.328,1.192,0.776,1.796,1.323,1.796
				c0.062,0,0.276-0.171,0.646-0.508c0.371-0.334,0.857-1.15,1.47-2.436c0.493-1.039,1.073-2.339,1.745-3.902
				c0.677-1.559,1.287-3.383,1.843-5.465c0.298-1.104,0.703-2.404,1.187-3.904c0.493-1.5,0.984-3.198,1.473-5.1
				c0.125-0.484,0.355-1.144,0.689-1.973C220.908,168.896,221.503,168.492,222.363,168.492"/>
		</g>
		<g>
			<defs>
				<rect id="SVGID_34_" x="-58.268" y="-58.268" width="400" height="400"/>
			</defs>
			<clipPath id="SVGID_35_">
				<use xlink:href="#SVGID_34_"  overflow="visible"/>
			</clipPath>
			<path clip-path="url(#SVGID_35_)" fill="#FFFFFF" d="M248.08,167.391c0.307,0.063,0.445,0.228,0.414,0.5
				c-0.035,0.276-0.047,1.06-0.047,2.344c0,1.224-0.246,3.091-0.734,5.603c-0.486,2.513-1.346,5.73-2.567,9.646
				c-0.677,2.146-1.413,4.042-2.206,5.697c-0.799,1.649-1.507,3.032-2.111,4.131c-0.496,0.858-1.093,1.719-1.795,2.569
				c-0.703,0.863-1.574,1.289-2.617,1.289c-1.963,0-3.492-0.793-4.592-2.39c-0.186-0.307-0.389-0.625-0.602-0.967
				c-0.217-0.334-0.445-0.745-0.688-1.237c-1.595,4.41-3.83,6.613-6.699,6.613c-1.414,0-2.698-0.518-3.864-1.559
				c-2.201-2.271-3.212-7.014-3.03-14.24c0.061-1.16,0.215-2.523,0.457-4.086c0.248-1.563,0.553-3.23,0.926-5.008
				c0.246-0.979,0.531-2.051,0.87-3.215c0.335-1.164,0.7-2.326,1.101-3.492c0.4-1.162,0.783-2.232,1.148-3.215
				c0.368-0.979,0.7-1.778,1.008-2.387c0.432-0.798,0.969-1.607,1.609-2.438c0.646-0.824,1.423-1.24,2.345-1.24
				c0.673,0,1.406,0.174,2.204,0.509c0.799,0.334,1.547,0.798,2.256,1.376c0.7,0.588,1.313,1.271,1.83,2.067
				c0.523,0.795,0.842,1.625,0.967,2.479c0.299,1.965,0.334,3.336,0.092,4.133c-0.242,0.795-0.491,1.379-0.734,1.744
				c-0.124,0.127-0.292,0.274-0.506,0.463c-0.217,0.182-0.46,0.32-0.737,0.41c-0.271,0.096-0.521,0.096-0.729,0
				c-0.223-0.09-0.354-0.348-0.416-0.779c-0.185-1.473-0.494-2.735-0.922-3.817c-0.426-1.063-1.041-1.657-1.832-1.784
				c-0.182,0.307-0.494,1.041-0.924,2.206c-0.429,1.163-1.039,3.154-1.834,5.972c-0.799,2.813-1.437,5.448-1.929,7.893
				c-0.364,2.943-0.55,5.974-0.55,9.102c0,0.979,0.208,1.893,0.64,2.756c0.124,0.244,0.339,0.44,0.646,0.596
				c0.304,0.15,0.517,0.232,0.646,0.232c0.242,0,0.638-0.523,1.193-1.566c0.544-1.038,1.157-2.541,1.834-4.5
				c0.671-1.776,1.106-3.428,1.284-4.959c0.185-1.532,0.43-3.092,0.74-4.686c0.117-0.49,0.213-0.947,0.273-1.379
				c0.059-0.429,0.124-0.888,0.182-1.38c0.059-0.485,0.045-0.823-0.045-1.013c-0.097-0.182-0.041-0.395,0.137-0.635
				c0.184-0.25,0.386-0.371,0.599-0.371h0.508c0.119,0,0.274,0.015,0.456,0.047c0.188,0.029,0.334,0.043,0.461,0.043
				c0.239,0,0.454,0.078,0.639,0.23c0.188,0.152,0.404,0.264,0.646,0.318c0.245,0.063,0.445,0.143,0.598,0.234
				c0.153,0.092,0.318,0.199,0.504,0.319c0.246,0.062,0.488,0.15,0.736,0.274c0.188,0.126,0.348,0.275,0.506,0.461
				c0.157,0.182,0.168,0.396,0.045,0.645c-0.186,0.547-0.354,1.131-0.504,1.743c-0.154,0.613-0.295,1.228-0.412,1.837
				c-0.125,0.861-0.229,1.775-0.328,2.752c-0.086,0.981-0.199,1.93-0.317,2.852c-0.126,1.65,0.06,3.31,0.553,4.959
				c0.243,0.675,0.438,1.119,0.593,1.334c0.155,0.215,0.262,0.353,0.324,0.41c0.059,0,0.152-0.078,0.273-0.229
				c0.127-0.146,0.304-0.427,0.553-0.827c0.248-0.396,0.566-0.977,0.967-1.742c0.396-0.764,0.9-1.762,1.512-2.984
				c1.225-2.51,2.129-4.79,2.717-6.842c0.58-2.055,1.051-3.629,1.425-4.732l2.293-6.43c0.12-0.494,0.353-1.09,0.688-1.793
				C246.53,167.552,247.158,167.263,248.08,167.391"/>
		</g>
		<g>
			<defs>
				<rect id="SVGID_36_" x="-58.268" y="-58.268" width="400" height="400"/>
			</defs>
			<clipPath id="SVGID_37_">
				<use xlink:href="#SVGID_36_"  overflow="visible"/>
			</clipPath>
			<path clip-path="url(#SVGID_37_)" fill="#FFFFFF" d="M167.292,149.813c1.267,0,2.244,1.563,2.949,4.707
				c0.789,3.038,1.186,6.185,1.186,9.423c0,2.84-0.396,5.449-1.186,7.803c-0.734,2.648-1.498,3.973-2.285,3.973
				c-1.143,0-2.037-1.129-2.684-3.383c-0.645-2.265-0.969-5.449-0.969-9.571c0-2.94,0.119-5.271,0.354-6.992
				c0.231-1.717,0.512-3.019,0.832-3.899c0.323-0.881,0.654-1.449,0.989-1.697C166.821,149.931,167.089,149.813,167.292,149.813
				 M152.498,151.567c0.765,0.92,1.489,2.202,2.17,3.843c0.677,1.637,1.252,3.596,1.724,5.861c1.075,4.5,1.622,8.398,1.633,11.68
				c0.019,2.7-0.493,4.67-1.512,5.904c-1.029,1.24-2.04,1.236-3.038,0.01c-1.52-1.968-2.719-4.633-3.596-7.996
				c-0.879-3.369-1.321-7.102-1.342-11.207c0-3.055,0.146-5.246,0.442-6.594c0.295-1.342,0.653-2.197,1.063-2.564
				c0.414-0.367,0.855-0.385,1.324-0.06C151.828,150.775,152.212,151.15,152.498,151.567"/>
		</g>
	</g>
</g>
</svg>
